/* XPM */
static char *_7be6f4702814ad085862831a0ac4fefLL5jOSet19Z9Gaxh[] = {
/* columns rows colors chars-per-pixel */
"64 64 226 2 ",
"   c None",
".  c #744C00",
"X  c #794E00",
"o  c #704500",
"O  c #7C5200",
"+  c #7E5900",
"@  c #735600",
"#  c #7A610B",
"$  c #785C2A",
"%  c #7A6221",
"&  c #7C6E3A",
"*  c #835602",
"=  c #845C01",
"-  c #895D01",
";  c #895D0C",
":  c #935F0E",
">  c #856302",
",  c #8C6401",
"<  c #8D6B04",
"1  c #876608",
"2  c #926601",
"3  c #956B02",
"4  c #9B6E02",
"5  c #94640A",
"6  c #946B0B",
"7  c #9D6E0A",
"8  c #957203",
"9  c #9B7204",
"0  c #917D00",
"q  c #9E7B05",
"w  c #96730C",
"e  c #9C730A",
"r  c #9D7A0B",
"t  c #917D0E",
"y  c #8B6B13",
"u  c #9E7511",
"i  c #96751B",
"p  c #8D7310",
"a  c #A26E04",
"s  c #A26F09",
"d  c #A37205",
"f  c #A47B03",
"g  c #AA7C03",
"h  c #A37209",
"j  c #A47C0B",
"k  c #A97E0B",
"l  c #A97507",
"z  c #A57C12",
"x  c #A97F14",
"c  c #AA7E1A",
"v  c #8B7B29",
"b  c #977732",
"n  c #A57C31",
"m  c #8D7C53",
"M  c #897349",
"N  c #957F60",
"B  c #9C8308",
"V  c #9E8315",
"C  c #A58302",
"Z  c #AB8304",
"A  c #AC8A03",
"S  c #A5810A",
"D  c #AC840C",
"F  c #AF8A0A",
"G  c #A68C07",
"H  c #B38505",
"J  c #B48B04",
"K  c #B98D05",
"L  c #B3850B",
"P  c #BB860C",
"I  c #B38A0C",
"U  c #BA8C0C",
"Y  c #B88506",
"T  c #AB9403",
"R  c #AE9804",
"E  c #AF9309",
"W  c #B49204",
"Q  c #BA9303",
"!  c #BD9A04",
"~  c #B5920C",
"^  c #BC930C",
"/  c #BD990C",
"(  c #B39B09",
")  c #AD8411",
"_  c #AC8913",
"`  c #AB8318",
"'  c #AB8715",
"]  c #B38512",
"[  c #BA8513",
"{  c #B48B12",
"}  c #BA8C13",
"|  c #B3851A",
" . c #B58C1B",
".. c #B98C1B",
"X. c #B69112",
"o. c #BC9313",
"O. c #BD9913",
"+. c #BC931A",
"@. c #BD9A1D",
"#. c #B49018",
"$. c #BBA00B",
"%. c #BDA413",
"&. c #BEA913",
"*. c #978127",
"=. c #9A8637",
"-. c #A38828",
";. c #B68C21",
":. c #BC8D22",
">. c #B79723",
",. c #BA9835",
"<. c #A8903A",
"1. c #AFA221",
"2. c #BBB020",
"3. c #B9A432",
"4. c #C18B0B",
"5. c #C29706",
"6. c #C49C03",
"7. c #C2950D",
"8. c #C39B0C",
"9. c #CA9D0D",
"0. c #CA9907",
"q. c #C18D1C",
"w. c #C29512",
"e. c #C49B12",
"r. c #C99D13",
"t. c #C09519",
"y. c #C39B1B",
"u. c #CA9D1A",
"i. c #CD9319",
"p. c #D19F16",
"a. c #C2A002",
"s. c #CBA405",
"d. c #C5A10C",
"f. c #CBA30D",
"g. c #C2AA0B",
"h. c #D1A50D",
"j. c #D4AB0E",
"k. c #CAB307",
"l. c #D7B30D",
"z. c #C4A112",
"x. c #CCA313",
"c. c #CEA913",
"v. c #C4A21B",
"b. c #CBA41B",
"n. c #CBAC1C",
"m. c #C6AD1B",
"M. c #D1A714",
"N. c #D4AB14",
"B. c #D9AE15",
"V. c #D1A61B",
"C. c #D4AC1A",
"Z. c #D8AF1C",
"A. c #CDB019",
"S. c #D5B213",
"D. c #DAB314",
"F. c #DBBA14",
"G. c #D4B31D",
"H. c #DAB51B",
"J. c #DCBA1A",
"K. c #D2B81A",
"L. c #E2BD0C",
"P. c #E2BA1A",
"I. c #C49C22",
"U. c #C99E21",
"Y. c #C49929",
"T. c #C9A124",
"R. c #CDAA23",
"E. c #CDA52A",
"W. c #C7A828",
"Q. c #D4AB21",
"!. c #D0A620",
"~. c #D7B224",
"^. c #DBB522",
"/. c #D8B629",
"(. c #D4BC2B",
"). c #DBBE2A",
"_. c #DCBA26",
"`. c #CFAC35",
"'. c #CAB230",
"]. c #E3BB29",
"[. c #DBC61D",
"{. c #D5C30E",
"}. c #E3C214",
"|. c #E1C11B",
" X c #E5C918",
".X c #F0CA1F",
"XX c #F0D11E",
"oX c #F8EA1B",
"OX c #DDC428",
"+X c #E6C02C",
"@X c #E6C626",
"#X c #F5CB2A",
"$X c #F9DB26",
"%X c #EBC837",
"&X c #F3CD3B",
"*X c #FBE821",
"=X c #FBE72A",
"-X c #FFFF2D",
";X c #F6E734",
":X c #FFFF32",
">X c #FFFC3A",
",X c #FFF231",
"<X c #948D5D",
"1X c #AC9948",
"2X c #B29859",
"3X c #A99C53",
"4X c #BFA543",
"5X c #B5A25B",
"6X c #B49B66",
"7X c #B9A276",
"8X c #B9A77E",
"9X c #CBB643",
"0X c #D3BE47",
"qX c #D4BB4D",
"wX c #C8A443",
"eX c #DBCD56",
"rX c #EECB40",
"tX c #F2CF44",
"yX c #F6D74A",
"uX c #ECD151",
"iX c #F9D758",
"pX c #FCE74D",
"aX c #F9E943",
"sX c #FFEC52",
"dX c #C3B58F",
"fX c #CBBB9D",
/* pixels */
"                                                                                                                                ",
"                                                                                                                                ",
"                                                9Xz.8.d.6.6.Q Q Q Q Q ! / v.9X                                                  ",
"                                        4Xv.n./ $.6.9.w.w.7.0.e.w.q.w.w.^ ! ^ U / W.                                            ",
"                                    3.&.f.0.9.8.0.8.%.y.O.O.O.O./ ! / / / o.w.q.U Q W %.                                        ",
"                                ,.B.$.g.&.%.%.z.8.8.8./ / / $./ / ~ / +.t.w.o.~ w.X.U 7.J (                                     ",
"                            wXQ.x.z.z.z.z.%.%.8.8.e.e.8.w.w.w.w.8.w.o.^ t.w.o.+.} X.w.o.+.W A m.                                ",
"                          '.x.8.e.x.z.e.e.y.z.O.8.d.e.y.v.u.y.y.t.t.y.e.8.Q Q / ! Q Q +. .#.~ A G                               ",
"                        ~.d.d.z.8.8.9.8.z.e.e.T.y._ u p = O . . . O * 1 w #.O./ ~ ..+.Q ~ #.+.o.~ C 2.                          ",
"                    5XK.6.d.z.g.x.9.9.9.z.y.F 8 = O O + > 6 u r u w < = . o O ; ;.:.+.~ ~ X.~ ..} { A (                         ",
"                  1Xm.8.r.x.x.e.v.e.v.b.D < + + < ' b.j.K.J.D.D.J.S.G.n.Q.+.j > o O u @.o.~ ~ U { ..} D R                       ",
"                3XC.s.p.u.8.x.9.e.b.{ < = = ' '.OX XF.P.D.F.F.l.N.M.c.M.f.f.z.b.@.w O O ` +.} W E U } :.F R                     ",
"              2Xc.6.9.x.r.x.8.b.T.r > + F _.@X|.}.F.F.F.D.F.N.N.M.M.V.V.9.e.x.a./ O.+.6 O 6 ;.{ ~ X.{ .. .J R                   ",
"              `.f.d.b.r.r.e.x.+.2 = 9 ^.@X|.|.[.J.F.P._.H.~.~.~.H.M.!.V.s.d.O.8./ / o.Y.| = =  .} X.{ I } { A 1.                ",
"            >.8.e.b.e.r.e.z.X.8 , ;.+X}.L.@XF.H.F.F.n.) 9 r r r r k j h 8.8.O.w.~ ~ o.X.} } 6 O c #.J ~ { ..J C 0X              ",
"          -.M.f.u.z.e./ b.@.< > y.@XP.L.J.D.F.H.k.D.8 = = = + * = * * X j y.+.~ ~ o.~ I I F X.w * ;.F ~ { { X./ f               ",
"          A.f.p.i.9.8.z.y.3 , u.].L.P.H.H.S.S.F.l.N.I.2 3 5 6 5 5 5 : 5 5 U.} ^ ~ ~ ~ I I I U #.w O ;.} ~ { I { J R             ",
"        >.e.r.e.r.9.9.v.w , u.P.H.D.H.G.S.N.j.S.S.g.W., 2 e 7 7 s s 5 Y.6 8.X.~ ~ ~ I I F { _ Z I 4 -  .~ I  .#.I F qX          ",
"      5Xf.u.r.e.e.u.d._ - K P.l.D.H.H.H.S.S.N.S.N.h.E., 7 h 7 s s a 4 U.9 e.o.~ U I I { _ I { I F ) , e #.I ~ { } { A           ",
"      >.0.u.r.r.8.v.I 2 j G.F.D.D.D.B.B.N.C.N.N.h.c.!.2 9 s s h s s 9 u.f y.{ ~ I I I I I I D F D ] ) , ) #.U I { #.A 0X        ",
"      x.9.U.e.w.e./ q 2 b.^.D.D.D.B.B.B.M.c.c.M.x.f.W.2 w h s s s s a y.Z O.I I I F I I I I D D ] ) | j , +.I ~ X.{ G R         ",
"    -.6.9.I.e.e.v.W , { D.N.B.B.B.S.N.M.N.c.c.c.x.6.E.2 9 h h h s s a y.D O.I ~ I ~ ~ I F J I F F F ) ) 2 z #.I I X.J A         ",
"    +.0.0.y.e.r.O.q 3 V.D.B.B.N.N.N.C.M.x.x.x.x.M.8.T.2 7 h 7 s s s 4 y.D O.{ ~ X.I I F D F I ) D L ) ] f 3  .U ~ F J Z 3.      ",
"    b.i.0.9.8.9.X., { H.B.j.l.N.B.M.M.x.x.x.x.x.x.5.T.2 7 e s s s a a y.Z O.I I ~ I I F F L F L ) D D ) S 3 ) { I E I ] J       ",
"  -.r.i.r.w.w.e. ., b.N.C.N.N.N.M.M.M.x.V.x.r.x.r.8.I.3 4 e s h h a 9 t.Z / I I I { I F F ] F ) D D D Z D q e ..F U I { C eX    ",
"  | x.8.e.e.e.t.j f C.N.N.N.M.N.c.x.x.x.r.r.r.u.e./ I.2 4 h a d d s d t.Z / F { { I { F ) F ] D D D D S S j 4 { I { I I D m.    ",
"  } 8.7.7.8.8.t.4 } C.j.M.C.M.f.f.f.f.x.r.e.9.e./ / I.2 4 9 d d a d a t.Z ( I { { { { F I ] F S D D D D S S 4 L I { I F D O.    ",
"dX7.w.8.w.7./ y.8 e.V.j.M.M.h.M.x.x.x.r.r.e.e.e./ / y.3 4 d d d d a a t.Z ~ I { I I { I F ) F F D D F D D ) 9 k U I { I F ~     ",
"8X5.w.7.e.7./ t.8 u.M.h.M.x.x.f.r.x.r.r.e.e.e.e.e./ t.3 9 h h d d a 9 t.Z / I F F I { ) F F F F D D D Z D S j f I J _ I I D     ",
"7X9.w.w.w.7.0.y.9 Q.M.h.x.r.f.9.9.e.e.e.7.9.7.7./ W t.3 9 h h h d d a t.f W F { { F I F ) ] ) _ D D D D D ) x d U I I { P Z     ",
"6X7.7.7.7.w.8.y.f V.x.f.x.r.r.r.e.e.w.7.w.w.w.7./ K +.3 3 h h h h d 4 +.f ~ F { I L I ] L F F F D D D D S S ) f { ~ _ { K Z     ",
"2X5.7.7./ t.Q n.j V.f.f.r.9.r.e.e.w.9.w.w.e.w.w.w.U >.4 w h h h l a 4 +.f ^ D ) I _ F I { S S D D D D S S D ] q I { { I F H     ",
"2X7.7.5./ +.Q Q.k V.9.r.r.9.e.w.w.w.7.w.w.w.U w.^ U +.3 8 h d d h a 4 } g X.L I _ I L F { S D D D D S S k D } f U _ | I F Z     ",
"6X7.4./ 7.X./ ].k M.d.r.e.8.8.7.7.7.^ 7.^ U 7.7.^ K +.3 9 h d h h a 4 +.f X.D _ L L I { { D G D G D D G F C +.g I I { I I Z     ",
"7X7.7.7.o.o.W %XZ h.r.r.e.7.7.w.7.7.7.^ ^ } Q U U U +.3 d d d d d a 4 +.f U D I D F F ] { D D S F S D G F C o.J W I _ L U g     ",
"8XU 7.7.~ o.J &XK 9.9.u.t.5.7.^ ^ ^ K ^ 7.U U ^ U K ..3 r h h h l a 4 o.f ~ D I F F I F I S D D S D S Z S F y.I J F { I _ k     ",
"fXP w.} o.U U &Xo.8.e.e.7.7.w.7.7.7.U K ^ U U P U J +.4 9 h h d s a 4 w.f { D I F F F I { S D D ) D D Z S F x.U I F _ I I L     ",
"  j t.q.w.K U /.OXI u.9.5.w.w.w.o.U } U U U U } U J +.3 e 9 d l l a a } f { D ) ] ) ) ] ) ) D ) D ) Z D c U j.J { F { F P |     ",
"  e / } ^ 7.U / pXZ e.5.5.w.7.} U ^ U U U U I P K J +.3 9 d d d h a a U d { D I { F L ) I D D D D ) D D g V.N.Y ] I ) J L ,.    ",
"  n K ^ K 7.X.Z sX/ 8.w.4.7.o.^ ^ U U U I U P L U J +.7 7 f d d h a a } f I D F I D _ F F D D ) D ) D Z Z @X9.L D F ] U k       ",
"    } Q Q w.q.J (.(.W 5.w.4.} U U U U J U I U P J J } 6 e d d d h a a P f L D ) F D F D F k ) D ) D S Z ! #X7.{ I A I L S       ",
"    7 w.Q ..} U T sXW 7.w.^ ^ U P K Y U H I U L Y H +.3 e 9 d h h a a } l L Z L ) F D D L S j S S S S C  X#XH L J F I ] B       ",
"    n } ~ U } X.J %Xn.Q w.4.P P U K I U U L L L J H ..3 e h d h l a a P f L Z L ) L D D D k Z D ) ) D ! =Xs.L { F F J Z 1X      ",
"      ) +.W ~ } / J pXW 4.4.} I I I P I L { L L P L ..4 d h h h l s d } k L D D D D L x ) S S k j ' C XX$XA _ | J P J B         ",
"      i 6.U U } U A (.OXK 4.U U L U P K L L L L L Z ..4 s s l h s h d P Z L D D D ) D S D k ` D ) r k.>X! I ) | I J G *.        ",
"        Z 4.} U } X.Z tX6.J U K J L U L L H L L L L ..7 s s l h s a l P Z L ) S k k S k g Z Z D z E :X[.Z F { | L E B           ",
"        i P q./ U U J J yX/ J K U J L L P L D H D Z ..7 h h l s l l l 4.o.g ) ) S D k k Z Z k c A oX;XD { _ F { F G *.          ",
"          h K A U U K K @.iXJ H J U I L L k L L Y f E.2 L ] ] H x 4.4.Z./ g D k D k k k k S j C oX-XG  .] F F L F t             ",
"          b I J U K U ^ F >.yXK J Y I ] ] L L k H d iXd f l f l g d f C.C.f k D S k g f j j A *X>XG _ _ ] I H I ' 3X            ",
"            # / P } K J K F W.uX~ Z L H L L L L k H g U P L P } ] { { I Z f j j B S k f j $.;X,XW F D I F P Y C p               ",
"              < 6.} ..P Q W F >.iX8.Z J Z H D D D k D f f Z Z g g f f q j j j z g z r B {.>XaXG S I Y H H L k t                 ",
"                r U P } K J H I H rX/.W J Z Z Z S k k k S j k j j k k j r j k j u 9 g.oX-X[.G ` ] J } L L F t                   ",
"                m C Q L } U I I U C b.&Xx.J Z g L k k j j z k j j j d j j h 8 Z k.*X:X;XW Z ) ] A J ] ] A 0                     ",
"                  m i [ } } P K } { F C Q.%XC./ Z H Z Z f d f d f f g Z K h.XX,X:X;XO.k ] | ] J H I ) { 0                       ",
"                    <X4 U K K U I { { ~ I Z e.].P.h.d.9.9.9.r.M.M.B.P.#X$X=X$XOX( C A F k | I H ] x J S                         ",
"                        @ U K H P { { I I I I Z J 7.d.h.M.M.V.Z.P.D.B.C.r.Y g k D ] L H L | L J Z D i                           ",
"                          $ k [ ..} U F J K H P | | ] D H H D H H H H H D D L F D F F D ] [ U Z B                               ",
"                              1 _ } P P P Y L U P L ] ] ] ] } L [ x ] L L [ F H J J J H J H f <.                                ",
"                                & > P ..P J U J J J L U L L Y L L P L L Y Y L [ L Y U J C V                                     ",
"                                    M > r _ D W J ] L U L Y L L H L L L Y Y L ] F  .w *.                                        ",
"                                          % 1 S L L P I [ ] ] I L L L P ] ) ) r < =.                                            ",
"                                                <Xv < w r B j q j r r y y =.                                                    ",
"                                                                                                                                ",
"                                                                                                                                "
};
