/* XPM */
static char *_8316e53df8841639ddf4272b3374c22NnoLZg441hCBiTw6[] = {
/* columns rows colors chars-per-pixel */
"64 64 237 2 ",
"   c None",
".  c black",
"X  c #000001",
"o  c #070D02",
"O  c #060804",
"+  c #060904",
"@  c #060B04",
"#  c #080A05",
"$  c #0B1106",
"%  c #192A08",
"&  c #1A3D20",
"*  c #1B3D20",
"=  c #1D3E20",
"-  c #1E3F20",
";  c #1F3F20",
":  c #31421F",
">  c #224020",
",  c #2F4420",
"<  c #314420",
"1  c #314520",
"2  c #334520",
"3  c #334620",
"4  c #334621",
"5  c #354621",
"6  c #384D22",
"7  c #3B5425",
"8  c #487317",
"9  c #4B6E29",
"0  c #547D27",
"q  c #547A2B",
"w  c #577933",
"e  c #5A7D30",
"r  c #5A7D31",
"t  c #587A34",
"y  c #5C7F36",
"u  c #578621",
"i  c #598922",
"p  c #5C8528",
"a  c #5D8131",
"s  c #5C8231",
"d  c #5E8332",
"f  c #5B8034",
"g  c #5E8337",
"h  c #608D2C",
"j  c #618D2C",
"k  c #618E2D",
"l  c #688E37",
"z  c #618639",
"x  c #638638",
"c  c #6A9037",
"v  c #53AF3F",
"b  c #54AF3F",
"n  c #73B12B",
"m  c #7BBD2D",
"M  c #76AE38",
"N  c #7CBB3B",
"B  c #7FBC3B",
"V  c #33A541",
"C  c #33A542",
"Z  c #35A742",
"A  c #33A84F",
"S  c #3AA94E",
"D  c #3BA94E",
"F  c #3EAA4E",
"G  c #3FAA4E",
"H  c #3FAA4F",
"J  c #3BA950",
"K  c #3DB655",
"L  c #6B8D48",
"P  c #6E914A",
"I  c #43A14E",
"U  c #45A34F",
"Y  c #46A34F",
"T  c #42AA4D",
"R  c #40AA4F",
"E  c #43AB4E",
"W  c #44AB4E",
"Q  c #42AC4F",
"!  c #43AD4F",
"~  c #41AE4F",
"^  c #45AC4D",
"/  c #45AD4F",
"(  c #47AD4E",
")  c #48AD4D",
"_  c #49AD4D",
"`  c #4AAE4D",
"'  c #49AD4E",
"]  c #48AD4F",
"[  c #4AAD4E",
"{  c #48AE4F",
"}  c #49AE4F",
"|  c #4AAE4F",
" . c #4AAF4F",
".. c #4BAF4F",
"X. c #4CAE4D",
"o. c #4EAF4D",
"O. c #4FAF4D",
"+. c #4CAE4E",
"@. c #5EAB4D",
"#. c #5DAA4E",
"$. c #49B04E",
"%. c #48B04F",
"&. c #4EB04E",
"*. c #56B040",
"=. c #5CB841",
"-. c #55B24D",
";. c #56B24D",
":. c #56B24E",
">. c #58B24C",
",. c #5AB24D",
"<. c #5AB34D",
"1. c #5BB34D",
"2. c #5CB34D",
"3. c #5DB44D",
"4. c #5FB54C",
"5. c #5EB44D",
"6. c #5FB44D",
"7. c #5FB74E",
"8. c #40AB50",
"9. c #44B854",
"0. c #4ABA55",
"q. c #4EBB54",
"w. c #50BC54",
"e. c #5EBF52",
"r. c #61AC4E",
"t. c #60B44C",
"y. c #60B54C",
"u. c #60B54D",
"i. c #62B54C",
"p. c #63B54C",
"a. c #62B54D",
"s. c #61B74D",
"d. c #64B64C",
"f. c #65B94D",
"g. c #6FB94B",
"h. c #68BD4E",
"j. c #7EB54B",
"k. c #75BB4A",
"l. c #74BB4B",
"z. c #75BB4B",
"x. c #76BB4A",
"c. c #77BB4A",
"v. c #71BA4C",
"b. c #71BB4C",
"n. c #7ABC49",
"m. c #79BC4A",
"M. c #7DBC49",
"N. c #7DBD49",
"B. c #7EBD49",
"V. c #7FBD49",
"C. c #66B250",
"Z. c #55C155",
"A. c #57C256",
"S. c #69C04F",
"D. c #81BC3B",
"F. c #86BE3B",
"G. c #87BF3C",
"H. c #88BE3A",
"J. c #82C137",
"K. c #85CA33",
"L. c #85C23C",
"P. c #8BCD3C",
"I. c #8CCD3D",
"U. c #83BA46",
"Y. c #84B74B",
"T. c #82B64C",
"R. c #80BE4A",
"E. c #84BF49",
"W. c #85BF49",
"Q. c #88B84B",
"!. c #8AB84B",
"~. c #89B84C",
"^. c #86C042",
"/. c #8DCE40",
"(. c #8ECE40",
"). c #82C24B",
"_. c #87C04A",
"`. c #88C148",
"'. c #89C149",
"]. c #8AC048",
"[. c #8AC148",
"{. c #8BC148",
"}. c #8AC149",
"|. c #8BC149",
" X c #88C14B",
".X c #89C14B",
"XX c #8CC148",
"oX c #8CC248",
"OX c #8EC248",
"+X c #8CC24A",
"@X c #8DC24A",
"#X c #8BC449",
"$X c #8CC449",
"%X c #87CB4E",
"&X c #8FCA49",
"*X c #8ECD4E",
"=X c #98C447",
"-X c #90C248",
";X c #91C348",
":X c #90C349",
">X c #90C549",
",X c #92C649",
"<X c #92C64A",
"1X c #94C448",
"2X c #96C548",
"3X c #97C548",
"4X c #96C549",
"5X c #90CA4B",
"6X c #91CA4B",
"7X c #92CB4B",
"8X c #90C94C",
"9X c #91CA4C",
"0X c #95CC4C",
"qX c #96CC4C",
"wX c #94CF4D",
"eX c #9FC848",
"rX c #9FC849",
"tX c #8FD042",
"yX c #94D149",
"uX c #95D04D",
"iX c #96D04D",
"pX c #96D34F",
"aX c #9AD14E",
"sX c #9ED24C",
"dX c #99D84E",
"fX c #90C752",
"gX c #91C852",
"hX c #96C959",
"jX c #97D450",
"kX c #9AD750",
"lX c #9FD751",
"zX c #9AD851",
"xX c #9FD851",
"cX c #A4DA52",
"vX c #A2DA5E",
"bX c #A5E153",
"nX c #A9E656",
/* pixels */
"                                                                                                                                ",
"                                                                                                                                ",
"                                  m L.L.L.L.L.L.L.L.L.L.L.L.L.L.L.L.L.L.L.L.L.J.hX                                              ",
"                                  q g g g g g g g g g g g g g z g g g g g g g f P                                               ",
"                                i . . . . . . . . . . . . . . . . . . . . . . . o I.                                            ",
"                                h . x t t t t t t t t t t t t t t t t t t t y 6 $ yX                                            ",
"                                h . bXqX7X6X6X6XwXqXqXqXwXqXqXqXwX<XwX6X7X*XuXd @ yX                                            ",
"                                h . Z.' W.XXW.OXM.' O.O.O.O.O.O.6.-XW XXW.{.7Xr @ yX                                            ",
"                                k . Z.Q _.[.W.OXE.8.} } } } } } -.XXR {.{.[.6Xe @ yX                                            ",
"                                k . cXF _.[.OXOXV.8.........} ..' R eXJ V.OX&Xt @ yX                                            ",
"                                k . cXR _.[.[.W.V.8...........} O.s.N.1.E.W.6Xe @ yX                                            ",
"                                p . lXR ).[.[.OXV.} ..........} 1.=XA <XOX{.6Xe @ yX                                            ",
"                                h . xX8.W.{..X{.V.( %.&.........O.s.c.3.W.{.8Xt @ yX                                            ",
"                                h . xXJ W.{.{.{.N.8.&.%.........' R eXJ V.{.6Xe @ yX                                            ",
"                                h . xX8.W.{.{.{.E.} } &.%...&.} -.XXW W.{.{.*Xr @ yX                                            ",
"                                h . xXJ W.{.{.{.V.8.%.} } &.} } -.XXW {..X{.&Xt @ yX                                            ",
"                                h . xXH W.{.{.{.V.( %.%.......} ' W eXH W.W.&Xe @ yX                                            ",
"                                h . xXH W.{.{.XXV.8.%.&.....} } &.s.c.<.W.W.*Xr @ yX                                            ",
"                                u . nX9.*XwXwXuX%X0.w.w.w.w.w.q.e.sXK aXqXwXkXa . I.                                            ",
"                                  9 : * 4 4 4 4 , ; ; ; > ; ; ; > 5 = 5 5 : 4 7 L                                               ",
"                                  n . . . . . . . . . . . . . . . . . . . . . % vX                                              ",
"                                    M gX. x C.@.Q.Y.~.I T.@.Y r.j.Y !.fX# w U.                                                  ",
"                                    ^.dX. c S.s.<XOX6X8.#X3.%.f.).&.<XdXO a &X                                                  ",
"                                      (.. l f.s.XX{.-X8.{.<.v.x.O.3XW.jX@ 0                                                     ",
"                                      (.. l h.6.OXOX-XR {.<.3.v.s.x.XXjX@ 0                                                     ",
"                                      (.. l h.s.OXW.-XR {.3.8.s.W.J -XjXO 0                                                     ",
"                                      (.. l h.t.XX{.-XR _.<.3.v.p.v.OXkX@ 0                                                     ",
"                                      (.. l h.t.OX{.-XR {.1.v.x.O.2XW.aXO 0                                                     ",
"                                      (.. l h.t.OX{.<XR {.3.( d.E.' -XjXO 0                                                     ",
"                                      (.. l h.t.OX{.XXQ {.3.( d.V.' -XkXO 0                                                     ",
"                                      (.. l h.6.OX{.OX8.{.1.v.x.' 2XW.sX@ 0                                                     ",
"                                      (.. l h.s.OX{.OX8._.1.3.v.s.c.W.jXO 0                                                     ",
"                                      (.. l h.t.XX{.-XR {.6.J s.{.J 1XaX# 0                                                     ",
"                                      (.. l h.t.XX{.-XR {.1.s.g.d.v.W.jXO 0                                                     ",
"                                      (.. l h.t.-X{.-X8._.1.b.c.O.2XW.jX@ 0                                                     ",
"                                      (.. l h.t.XX{.<XJ _.6.( d.V.' -XkXO 0                                                     ",
"                                      (.. l h.t.OX{.OX8._.3.( d.E.' -XjXO 0                                                     ",
"                                      (.. l h.s.OX{.<X8.{.1.v.c.O.=XW.jXO 0                                                     ",
"                                      (.. l h.s.XX{.XX8.{.1.3.g.s.x.XXjX@ 0                                                     ",
"                                      (.. l h.s.XXXX-XR {.3.R s.W.J -XjXO 0                                                     ",
"                                      (.. l h.s.-X{.<XR {.1.3.v.p.x.XXjXO 0                                                     ",
"                                      (.. l h.6.XX{.XXR {.1.v.c.O.1XW.jXO 0                                                     ",
"                                      (.. l h.t.XXXX-XR _.3.( d.E.' -XaXO 0                                                     ",
"                                      (.. l h.t.XX{.<XR {.3.( s.V.' XXkX@ 0                                                     ",
"                                      (.. l h.s.XXXX<XR W.1.v.x.' 2X{.jXO 0                                                     ",
"                                      (.. l h.6.XX{.XXR W.6.s.v.s.c.XXjXO 0                                                     ",
"                                      (.. l h.t.-X{.-XR {.6.J s.[.J -XjXO 0                                                     ",
"                                      (.. l h.t.XX{.<XJ {.1.6.g.p.x.XXjXO 0                                                     ",
"                                      (.. l h.t.OXOX-XR _.1.g.N.O.=XW.jX@ 0                                                     ",
"                                      (.. l h.t.OXW.-XR {.1.8.f.E.' -XkXO 0                                                     ",
"                                      /.. l h.6.OX[.-XR {.6.( d.V.( -XaXO 0                                                     ",
"                                      (.. l h.s.OX[.<XR {.1.v.x.' 2XW.jXO 0                                                     ",
"                                      (.. l h.t.OX[.<XR {.1.s.v.s.x.{.jXO 0                                                     ",
"                                      (.. l h.t.OX[.-XR {.6.J s.{.J -XjXO 0                                                     ",
"                                      (.. l h.t.OX[.XXR _.1.6.g.s.N.XXjXO 0                                                     ",
"                                      (.. l h.t.OX[.-X8.{.1.g.z.' =XW.jX@ 0                                                     ",
"                                      (.. l h.t.XX{.-XR {.6.( p.E.] -XjXO 0                                                     ",
"                                      (.. l h.t.XX{.-XR _.6.( s.E.W -XjXO 0                                                     ",
"                                      (.. l h.6.OX{.<XH {.1.v.N.' =X{.jX@ 0                                                     ",
"                                      (.. l h.s.OX{.OXH _.1.3.g.p.x.{.jXO 0                                                     ",
"                                      K.. p =.b L.D.G.Z B v Z *.N C H.tX. 8                                                     ",
"                                                                                                                                ",
"                                                                                                                                ",
"                                                                                                                                "
};
