/* XPM */
static char *_e17ddc1e5de4822ecd9b746ab4690487Qqd8xxoJpMqFwwQ[] = {
/* columns rows colors chars-per-pixel */
"64 64 235 2 ",
"   c None",
".  c #010101",
"X  c #02050A",
"o  c #0A0703",
"O  c #1B0200",
"+  c #160501",
"@  c #021806",
"#  c #000B1B",
"$  c #000416",
"%  c #07141B",
"&  c #151715",
"*  c #270500",
"=  c #330000",
"-  c #360A03",
";  c #28160C",
":  c #371909",
">  c #022708",
",  c #043608",
"<  c #003E15",
"1  c #323014",
"2  c #000B21",
"3  c #001324",
"4  c #001B2D",
"5  c #02162A",
"6  c #001D33",
"7  c #001F39",
"8  c #031938",
"9  c #151829",
"0  c #002139",
"q  c #022136",
"w  c #152731",
"e  c #30393B",
"r  c #4C1300",
"t  c #481501",
"y  c #5B1200",
"u  c #521C01",
"i  c #5C1B00",
"p  c #531700",
"a  c #4E0B00",
"s  c #631D00",
"d  c #681B05",
"f  c #751E00",
"g  c #592204",
"h  c #552816",
"j  c #4D3004",
"k  c #652200",
"l  c #6B2600",
"z  c #6D2900",
"x  c #63270B",
"c  c #712400",
"v  c #732C01",
"b  c #7C2C00",
"n  c #782401",
"m  c #7A3308",
"M  c #62331E",
"N  c #52392A",
"B  c #6F3A26",
"V  c #06460B",
"C  c #005A1D",
"Z  c #0D4E19",
"A  c #056C17",
"S  c #237F1B",
"D  c #055D21",
"F  c #12592D",
"G  c #3F473D",
"H  c #006824",
"J  c #017C2B",
"K  c #027727",
"L  c #217625",
"P  c #695111",
"I  c #594537",
"U  c #4C5839",
"Y  c #794229",
"T  c #72543C",
"R  c #011B48",
"E  c #001455",
"W  c #301349",
"Q  c #002545",
"!  c #002A4C",
"~  c #022749",
"^  c #002C54",
"/  c #00225C",
"(  c #002D5A",
")  c #092D5B",
"_  c #00315D",
"`  c #063259",
"'  c #1D3858",
"]  c #182B4A",
"[  c #001D63",
"{  c #002965",
"}  c #003463",
"|  c #00356A",
" . c #003A6D",
".. c #003971",
"X. c #163F62",
"o. c #154D49",
"O. c #325156",
"+. c #037C48",
"@. c #096254",
"#. c #00427B",
"$. c #005373",
"%. c #265C6A",
"&. c #106370",
"*. c #377377",
"=. c #2E6766",
"-. c #277451",
";. c #4B4C51",
":. c #6C5C4F",
">. c #68635F",
",. c #566470",
"<. c #4D6654",
"1. c #852900",
"2. c #862A00",
"3. c #993A00",
"4. c #8A3603",
"5. c #A23609",
"6. c #D11C00",
"7. c #804E0E",
"8. c #8E7305",
"9. c #A27603",
"0. c #81482E",
"q. c #97593D",
"w. c #925032",
"e. c #A25A2D",
"r. c #BB5D18",
"t. c #9C5D42",
"y. c #865D46",
"u. c #9B6B4F",
"i. c #A26446",
"p. c #B87452",
"a. c #AE714E",
"s. c #9E7E65",
"d. c #C57E5C",
"f. c #05961A",
"g. c #37A41D",
"h. c #02882A",
"j. c #099C22",
"k. c #049927",
"l. c #028A33",
"z. c #059833",
"x. c #139A2C",
"c. c #0BA22E",
"v. c #00AA2D",
"b. c #00A135",
"n. c #0DA235",
"m. c #03A139",
"M. c #05AB37",
"N. c #17A733",
"B. c #1CB232",
"V. c #39A726",
"C. c #27A735",
"Z. c #2AA835",
"A. c #28A735",
"S. c #36AB33",
"D. c #2DB437",
"F. c #2E802F",
"G. c #44AC31",
"H. c #4AB334",
"J. c #06824C",
"K. c #2EAE52",
"L. c #3AB662",
"P. c #249943",
"I. c #4AB96B",
"U. c #54B346",
"Y. c #B48D00",
"T. c #C89100",
"R. c #D8B002",
"E. c #F3B201",
"W. c #B6C60C",
"Q. c #FFCD00",
"!. c #FDC706",
"~. c #FFD300",
"^. c #FFDC00",
"/. c #FFE200",
"(. c #FFE900",
"). c #928E55",
"_. c #BD815C",
"`. c #B89264",
"'. c #B5876E",
"]. c #CB8459",
"[. c #C78966",
"{. c #DD8D66",
"}. c #D7926D",
"|. c #CB9775",
" X c #D69B75",
".X c #CB926E",
"XX c #E49D76",
"oX c #E3956A",
"OX c #D8A17D",
"+X c #ECA47B",
"@X c #E2A07A",
"#X c #08588A",
"$X c #00648A",
"%X c #007AA6",
"&X c #3C729F",
"*X c #4A6F92",
"=X c #788087",
"-X c #5685AB",
";X c #6A8DB3",
":X c #7BC991",
">X c #78B1D4",
",X c #AA9289",
"<X c #B6B7AD",
"1X c #9A9F9B",
"2X c #E9A983",
"3X c #F4AC82",
"4X c #F5B68E",
"5X c #F9B68A",
"6X c #FAB788",
"7X c #FCBD93",
"8X c #F5BC95",
"9X c #E6B490",
"0X c #CA9FA2",
"qX c #8FCE93",
"wX c #A6DDB8",
"eX c #94D5A6",
"rX c #FEC295",
"tX c #FBC49C",
"yX c #FFCA9D",
"uX c #F3C19D",
"iX c #FAC6A0",
"pX c #FFCBA3",
"aX c #FFD3A6",
"sX c #FFD3AC",
"dX c #FFDAAE",
"fX c #FFDBB3",
"gX c #FFD6B2",
"hX c #9FC4D6",
"jX c #CECECF",
"kX c #F5D1D0",
"lX c #DCF0E3",
"zX c #FFFFFF",
"xX c #FFF9F3",
"cX c #F1EDEF",
"vX c #E8E4DB",
/* pixels */
"                                                                                                                                ",
"                                                          K.L.                                                                  ",
"                                                    S.U.f.k.f.k.z.k.                                                            ",
"                                                c.n.V.G.qXeXzXwXk.z.h.h.                                                        ",
"                                              c.K.n.g.qXlXc.zXzXqXh.l.l.A                                                       ",
"                                            j.C.b.Z.g.lXlXM.zXzXcXh.l.l.K V                                                     ",
"                                          n.K.N.n.G.g.lXzXf.n.I.lXh.l.K K F Z                                                   ",
"                                          z.N.b.S.G.V.H.wXI.L.:XK.h.h.K K D ,                                                   ",
"                                        K.b.b.b.G.G.H.D.v.M.M.b.z.l.J K H C V                                                   ",
"                                        j.b.b.M.D.S.L Z > @ @ > < C K K H C F @                                                 ",
"                                        c.v.M.D @ . . . X . . . . . . @ > Z Z @                                                 ",
"                                        F.Z k c t - ; i r t t t r . O O a p o ;                                                 ",
"                                      e.1.2.m z z k x k k g s i s O t r i t - n d                                               ",
"                                    e.k z x m z l k z k k k k k s * i i s - O i d -                                             ",
"                                    b z z z v z z l l z k k k k r * s s d - O i d -                                             ",
"                                    m z v z k s l l l u k k d s + p s k s . * i s =                                             ",
"                                    b z v k Y }.g g u h h g s h h u p u h o = i d =                                             ",
"                                    b z z a.dXrX}.t.w.t.d.i.B M Y i.t.B Y [.t.y d =                                             ",
"                                    b s |.gXtXpX X. . N rX+Xd.d.; . o .X3X5XsX[.y =                                             ",
"                                    b s |.pXiXaX. :. Xs.9X7X5X.Xs..XI . aX8XpX_.y =                                             ",
"                                    b i  XpXpXs.s.dXpXpXtXtXrXuX7XyXdX:.'.pXpX[.y =                                             ",
"                                    n s  XpXiX9XsX3X+X8XtXtXuXyX3XXX6XpX9XiXpX.Xy =                                             ",
"                                    n i 2XpXiXpX2XxXcXvXrXyXyX+XkXcXcX7XiXiXpX.Xs =                                             ",
"                                    c p 9XpXtXuXkX>X#.%XgXtXuX0X%X@.>XcX7X7XiX2Xa -                                             ",
"                                  ].c m fXiXiX4XxX#X,Xw >XrXrX-X] ,X#XzX8XrXtXsXl - u.                                          ",
"                                  ].l uXiXtXiX5XcX$.+ w hXsXyX<X& o $XcXrXuXtXtX8X- u.                                          ",
"                                  2XfXiXiXiXiX7XzX$XW fXtXtXtXpXiXW $XzX8XtXuXtXpX Xp.                                          ",
"                                  3XsXiXtXtXpXpXvXhX<XpXiXiXiXiXiX,XhXzXrXyXuXrXyX}.a.                                          ",
"                                        tXpX:.N aXzXaXtXiXiXiXiXpX9XxXaXI I aXtXiX  e._.                                        ",
"                                        iXaX. . . T sXiXiXiXtXiXpX2X* . . . 3XrXpX                                              ",
"                                        iX8X. . . . '.aXiXiXiXiXdXy.. . . . i.rX8X].                                            ",
"                                        tXaX. . . . . 8XfXsXsXfX X. . . . . 0.3X@X                                              ",
"                                      4X4XaXN . o . . . N T T 1 . . . . . + w.}.2X                                              ",
"                                      8X4X7XrX. . . . . . . o . . . . . . M i..XXX                                              ",
"                                      4X4X4X7X+X: . . . ;.xXzX;.. . . ; M q.p.}.XX                                              ",
"                                      4X4X4X4X5X+Xi.B N . . . . y.Y Y 0.t.a.[.}.                                                ",
"                                      6X7X7X7X7X7X7XXXXXt.6.6.'.7X+XXXoX{.{.oXoX                                                ",
"                                      %.*.*.*.-.L 7XtXrXpXdXfXpXyXrX{.L o.=.=.=.o.                                              ",
"                                    #X| | | ..~ K z.).`.`.`.`.`.`.).K v./  .}  ...{                                             ",
"                                    / { ( [ / q x.N.n.N.c.c.n.m.k.x.N.N.R { { _ { R                                             ",
"                                  @.<.^.(.~.O.8 B.A.A.A.Z.A.A.A.Z.C.Z.B.E O.^.(.^.U %                                           ",
"                                x.P./.~.Q.~./.5 N.Z.A.A.A.A.C.A.C.C.C.B.~ (.~.!.Q./.1 >                                         ",
"                              j.z.W.~.Q.Q.Q.^.P z.S.C.A.A.A.A.C.C.C.C.M.8.^.Q.Q.Q.^.Y.> V                                       ",
"                              n.l.R.~.Q.~.~.^.9.J Z.A.A.A.A.A.A.C.Z.Z.n.Y.~.Q.Q.Q.~.T.> ,                                       ",
"                            L.b.H 8.^.Q.Q.Q.(.j K D.S.S.Z.Z.Z.Z.Z.Z.Z.M.P /.Q.!.Q.^.7.@ ,                                       ",
"                            j.m., R !.^.^.(.T.X V l.z.n.n.n.n.n.n.n.N.M.E R.^.~.^.E.X @ , ,                                     ",
"                            f.k.. ;X[ P 9.j $ X , K z.z.z.b.m.b.m.m.z.v.R E P 9.P $ ,.o , ,                                     ",
"                                  ;X#X' 4 # 5 6 F +.J.J.J.J.J.J.J.+.J.J.) } R $ $ # *X1 G                                       ",
"                                ;.*X#X| { } } | | { { { { / / / / [ / / ^ ( ^ ! Q q ;.& >.                                      ",
"                                    #...| | } } } } } _ } _ _ _ ( ^ ^ ^ ^ ^ ( ^ ! Q ,.e                                         ",
"                                  R #.....| } | } } } } } } } _ ( ( / ( ^ ^ ^ ` ^ ~ $ >.                                        ",
"                                  o.#. . . .| } } } } } _ } } _ ( ( ^ ^ ^ ^ ^ ^ ` ! w                                           ",
"                                     . . .} } } | } } } } } } } _ _ _ ^ ` ^ ^ ^ ! Q                                             ",
"                                    ^ } } _ } } } } } _ _ _ _ _ _ ^ ^ ^ ^ ! ! ~ ~ 4                                             ",
"                                    7 ~ ! ^ ^ _ _ _ ` ^ ` ! ^ ! ! ! ~ Q Q 0 0 q q %                                             ",
"                                      q q q Q ! ! ! ! ! ! ! ! ~ ~ ~ Q 0 q 4 5 3 %                                               ",
"                                      | ^ 8 3 3 4 q q q 0 0 q q 6 4 5 % # # 3 7 6                                               ",
"                                      | } _ ^ 7 2 # 4 4 4 4 4 4 4 3 # # 5 0 Q ^ R                                               ",
"                                    -X| } } } ^ % . . X X X X X . . . 6 ^ ^ ^ _ Q                                               ",
"                                    &X..} } } ! X . . . . . . . . . . 5 { ( ( ( / ,.                                            ",
"                                      %.' ' ' w X . X o X . X X . . . 9 ' ] ' ' ] ;.                                            ",
"                                    5.r.5.3.2.c - . vXzXzXzXzXzXzXjX. 2.3.4.1.1.n -                                             ",
"                                    1.4.v v k u + . jXzXzXzXzXzXzX<X. b 1.l s s y O                                             ",
"                                    k z g g u : + =XzXzXzXzXzXzXzXzX=Xi k i r r - o                                             "
};
