/* XPM */
static char *_189926a5b4b4f89e743fd919db6e2bfUhXHzbFxtDOb8LBi[] = {
/* columns rows colors chars-per-pixel */
"64 64 87 1 ",
"  c #1F0D04",
". c #210F05",
"X c #261106",
"o c #291307",
"O c #2F1508",
"+ c #2E190F",
"@ c #301609",
"# c #2C1A11",
"$ c #311D13",
"% c #372015",
"& c #3B2215",
"* c #3B261C",
"= c #3F2B21",
"- c #65311A",
"; c #6C351C",
": c #7C3A1D",
"> c #4C3327",
", c #453228",
"< c #623623",
"1 c #673B27",
"2 c #6F3B22",
"3 c #6A3F2B",
"4 c #733C23",
"5 c #7A3D22",
"6 c #7E4C35",
"7 c #7C4D38",
"8 c #7F7772",
"9 c #854123",
"0 c #8B4425",
"q c #8E492A",
"w c #944725",
"e c #934827",
"r c #9A4A27",
"t c #964B2A",
"y c #9C4E2B",
"u c #9F502C",
"i c #874F36",
"p c #8E4E32",
"a c #9D5434",
"s c #A14E29",
"d c #A3522D",
"f c #AB542E",
"g c #A15533",
"h c #AA5731",
"j c #AC5831",
"k c #B35C34",
"l c #B85F36",
"z c #AA603E",
"x c #B96037",
"c c #B5603A",
"v c #BB6138",
"b c #BD6239",
"n c #C0633A",
"m c #C86539",
"M c #C2683F",
"N c #CC683B",
"B c #C8683C",
"V c #CA683D",
"C c #CC693D",
"Z c #CF6B3F",
"A c #D06C3F",
"S c #B66440",
"D c #B46642",
"F c #B06747",
"G c #8A7C75",
"H c #8C7D76",
"J c #C26840",
"K c #C36A42",
"L c #C56940",
"P c #C46941",
"I c #C46B43",
"U c #C16D47",
"Y c #C3714D",
"T c #90857F",
"R c #938680",
"E c #978882",
"W c #F1F2F3",
"Q c #F4F5F6",
"! c #F4F6F7",
"~ c #F5F7F9",
"^ c #F7F8FA",
"/ c #F6F9FB",
"( c #F7F9FC",
") c #F7FAFD",
"_ c #FAFDFF",
"` c #FDFDFE",
"' c white",
/* pixels */
")UMPKKKKKKKKKPKKUPPKKKPPPKKKPDQ''_YPPPPPKKKUKKKKKKKKKKKPPKKKKKSQ",
"zfkkkkkkkkkkkkkkkkkkkklkkkkklsqRTjfkkkkkkkkkkjkkkkkkkkkkkxkkllsq",
"aujjgfhhjhhdhhjhhhghhhhgghhhhy9oXysfhhjjhhhhhhhhhhhhhghhhhhdhht5",
"asjjhhhhjjhhhhhjhhhhhhhhhhhhht0$#yghhhjjhhhhhhhhhhhhhhhhhhhhhhw5",
"adjhhhhhhhhhhhhhhhhhhhhhhhhhhy0$$ydhhhhhhhhhhhhhhhhhhhhhhhhhhhr5",
"adhhhhjhhhhhhhhhhhhjhhhhhhhhhy0$#ydhhhhhjhhhhhhhhhhhhhhhhhhhhhr5",
"adhhhhhhhhhhhhhhhhhhhhhhhhhhhy0$$ydjhhhhhhhjhhjhhhhhhhhhhhhhhhr5",
"adhhhhhhhhhhhhhhhhhhjhhhhhhhhs0$$yuhhhhhhhjhhhhhhhhhhhhhhhhhhhr5",
"ashhhhhhhhhhhhhhhhhjhhhjhhhhhyq$$ygjhhhhhjhhhhhhhhhjhhhjhhhhhjr5",
"aghhhhhhhhhhhhhhhhhhhhhhhhhhjr0$$ysjhhhhhhhhhhhhhhhhhhhhhhhhhjy5",
"aghhhhhhhhjhhhjhhhjhhhhhhhhhhy0#$ygjhhhhhhhhhhjhhhhhhhhhhhhhhhr5",
"gshhhhhhhhhhhhhhhjhhhhhhhhhhhyq$$ysjhhjhhhhhhhhhhhhhhhhhhhhhhhr5",
"asjhhhhhhhhhhhhhhjhjhhhhjhhhjy0$$ysjjhhhhhhhhhhhhhhjhhhhhhhhhjr5",
"aghhhhhhhjhhhhhhhhjhhhhhhhhhjr0$$yghjhhhjhhhhjhhhhhhhhhhhhhhhhr5",
"ashhhhhhhhhhhhjhhhhjhhhhhhhhjrw$#sghhhhhhhhhhhhhhhhhjhhjhjhhhjt5",
"gghhhhhhhhhhhhhhhhhhhhjhhhhhjy0$$ydhhhhhhhhhhhhhhhhhhhhhjhhhhhr5",
"adjhhhhhjjjjjjjjhhhhhhhhjjjjjtw$$sshhhhhhhhhjjjjhhhhdhhfhhfhhhr5",
"ghkjjkkjjjjkkjjhjkkjjkkkhkjkksy$$dhhjkkjkkjhjkhkkkjkkkkkkkkjkky:",
"7-42424244444442442222422244442$$24444444244444444224445242444-3",
"_*+$$$$$$$$$$$$$$$$$$$$$$$$$$$$$&$$$$$$$$$$$$$$$$$$$$$$$$$$$$+*^",
"'E@&$&&&$&&$&&&&&&&$$$&&$&&&&$&$&$&&$&&&$&&&&&&&$&&&&&&&&&&&$@H'",
"'H.###+$++$+#$&&&$$+++$$#+$+$$$+++$$+#$#$@+$##&&&&++++++##@$+XG`",
"~PNNPPCCCCAMMx$&&$nANAMMCCLCACLACAMMCCCCPCPAPk%%&$KMMLLNMLPPCVkQ",
"Dfxxbkkkklllljr$$jklkllllllklkkklllxlklllklklh0%$flllllllllkklsp",
"ugjghhgjhhgfjyt#$rsjhhhghhhghhhfffgfhhgfhhhhht9#$yshghhjfjhhjht:",
"ashjhhhhhhjjhdt$$sdjhhhhhhhhhhhhhjhhjhjjhhhhht9%$shhhhhjhjhhjht:",
"ashjhhhhhhhhhsr#$ydhhhhjhhhhhhhhhhhhhhhhhhhjhr9$#sghhhhhhhhhhjt5",
"ashhhjhhhhhhhyt$$ydhhhhhhhhhhjhhhhhhhhhhhhhhjt9$$yshhhjhhhhhhht5",
"gghhhhhhhjhhhyr$$rsjjjhhhhhhhhhhhhjhhhhjhhhhhr9$$yghhhhjhhhhhjt:",
"ashhhhhhhhhhhst$#yghhhhhhhhhhhhhhhhhhhhhhhhhjy9$#sdhhhhhhhhhhjt9",
"gshhjhhhhhhhjdt$$ydhhhhhhhhhhhhhhhhhhhhhhhhhjt9$$dghhhhhhhhhhht5",
"aghhhhhhhhhhjyt$$ydhhhhhhhhhhhhhhhhhhhhhhhhhhy9$$sshhhhhhhhhhhr5",
"gdhhhhgjhhhhjdy$$ydhhhhhhhhhhhhhhhhhhhhhhhhhjt9#%udjhhhhhhhhhjt5",
"ashhhhhhhhhjjyr$$ydhhhhhjhhhhhhhhhhhhhjhhhhjjt9%#udhhhhhhhhhhjt5",
"gghhhhhhhhhhjyt$$yghhhhjhjhhhhhhhhhhhhhhhhhhjy9##ydjjhhhhhhhhjt5",
"ashhhhhjhhhhhyt#+yfhhhhhhhhhhhhhhjhhhhhhhhhhjt9%$udhhhhhhjhhhht5",
"gsjhjgfjhhjhjdt$$ydhhhhhhhjhhhhhhhhhhhhhhhhhjy9$$udhhhjjhhhhhjt:",
"aghhjjjjhhhhjst$$ydhhhhhhhhhhhhhhhhhhhjhhhhjjr9$#udhhhjjhhhhhjt9",
"ashhjjjjjjhhhst$$rdhhhhhhhhhhhhhhhhhhhhhfjjjjr9$$ddjhjhjhhhhhht5",
"ahkkjkjjkjkkkgs$$sfkjkjjkkjkjkkkkjkkjkjjkkjjku0$#djkjkjjjkkjkky:",
"6;5444444454524$$2554445554445544544554544446--&%2446445545555-1",
"_&$$$$$$$$#$$$$*&$$$$$$$$$$$$$$$$$$$$$#$$$$$#%$&&%$#+%#$$$$$$#$Q",
"'R@$&&&&&&&$&&&&$$*$$$$&$&&$$$&&&&$&$&&&&&*&&&&&&&%&$&&&$$&$&@H'",
"'H.#####++$+####$$$#$$+$##$#$$&&&$$$###+###########+++##$$$+#.8'",
"_PmVLVVVVVVVNMVVNPCNPMANMPNCPk$$&$lCCVVVmVVVVVVVVCVVVVVVVCVVVVc/",
"Fflklllklkklllklllkklllllkxlxkt$$hlllllklxxkxklkkkvkkkxkklkkkvsp",
"ysdjfggjfhghjjdhhhhhhhdjhfhfkye$$yshhfgfhghdjhfghhhfgfhhjjdjjjt:",
"adjjjhjjhhhhhhhhhhhhhhhhhhhhhyq$$yghhhhhhhhhjhhhhhhhhhhhhjhhjht5",
"adjjhhhhhhjhhhhhhhhhhhhhhhhhhue$$ydhhhhhhhhhhhhhhhhhhhhjhhhjhjt5",
"agjjhhjhhhhhhhhhhjhhhhhhhhhhhue$$ydhhhhhhhhhhhhhhhhhhhhhhhhhhjt5",
"adghhhhhhhhhjhhhhhhhhhhhhhhjhue$#ygjhhjhhhhhhhhhhhhhhhhhhhhhhjt5",
"gshhhhhhhhhhhhhhhhhhhhjhhhhhhye$$yghhhhhhhjhhhhjhhhhhhhhhhhhhht5",
"ashhhhhhhhhhhhhhhhhhhhhhhhhhjue$$ydhhhjhhhhhhhhhhhhhhhhjhhhhhht5",
"gghjhhjhhhhhhhhhhjhhhhjhhhhhhue$$ydhhhhhjhhhhhhhhhhhhhhhhhhhhkt5",
"agjhhhhhhhhhhhhhhhhhhhhhhhhhhue$$ydhhhjhhhhhhhhhhhhhhhhhhhjgjjt:",
"asjhhhhhhhhhjhhhhhhhhhhhhhhjhue$$ydhhhhhhhhhhhhjhhhhhhhhhhhhjjt9",
"adhhhhhhhhhhhhhhhjhhhhhhhhhhhye$$ydhhhhhhhhjhhhhhhhhhhhhhhhhhjt9",
"ashhhhhhhhhhhhhhjhhhhhhhjhhhjye$$ydhhhhhhhhhhhhhhhhhhhhhhhhhhht5",
"adhhhhhhhhhhhhhjhhhhhjhhhhhhjyw$$ydhhhhhhhhhhhhhhhjhhhjhhhhhhjt5",
"adhhhhhhhhhhhhhhhhhhhhhhhhhjjyt#$ydhhjhhhhhhhhhhhhhhhhjjhhhhhht:",
"ashhhhhhjjjjhjhhjjjhjhhjhjhhjyt$$ydjhjhhjjhjhjhhhjhhjjjjhjhjhht5",
"afkjhkkkjjjkjkkjjjjkjkjjkjkjkswoXshjkjkjjjjkjkjjkjjkjjjjjkjjkks:",
"i;554554555444554554555544555;2GT42544554555565544555555565555;<",
"(>$,***=&,***&,***=**=***=*=$,W''(>$*=*=**=&*&****==*****%***&=/"
};
